G75*
G70*
%OFA0B0*%
%FSLAX24Y24*%
%IPPOS*%
%LPD*%
%AMOC8*
5,1,8,0,0,1.08239X$1,22.5*
%
%ADD10C,0.0050*%
%ADD11C,0.0000*%
%ADD12C,0.0040*%
%ADD13C,0.0080*%
%ADD14C,0.0004*%
D10*
X007438Y001887D02*
X007438Y003737D01*
X007440Y003771D01*
X007446Y003804D01*
X007455Y003836D01*
X007468Y003867D01*
X007484Y003897D01*
X007503Y003924D01*
X007526Y003949D01*
X007551Y003972D01*
X007578Y003991D01*
X007608Y004007D01*
X007639Y004020D01*
X007671Y004029D01*
X007704Y004035D01*
X007738Y004037D01*
X008481Y004037D01*
X008781Y004337D01*
X008781Y006554D01*
X008783Y006577D01*
X008788Y006600D01*
X008797Y006622D01*
X008810Y006642D01*
X008825Y006660D01*
X008843Y006675D01*
X008863Y006688D01*
X008885Y006697D01*
X008908Y006702D01*
X008931Y006704D01*
X012681Y006704D01*
X012704Y006702D01*
X012727Y006697D01*
X012749Y006688D01*
X012769Y006675D01*
X012787Y006660D01*
X012802Y006642D01*
X012815Y006622D01*
X012824Y006600D01*
X012829Y006577D01*
X012831Y006554D01*
X012831Y006404D01*
X012829Y006381D01*
X012824Y006358D01*
X012815Y006336D01*
X012802Y006316D01*
X012787Y006298D01*
X012769Y006283D01*
X012749Y006270D01*
X012727Y006261D01*
X012704Y006256D01*
X012681Y006254D01*
X011631Y006254D01*
X011622Y006337D02*
X011669Y006384D01*
X011669Y006571D01*
X011622Y006617D01*
X011482Y006617D01*
X011482Y006337D01*
X011622Y006337D01*
X011631Y006254D02*
X011608Y006252D01*
X011585Y006247D01*
X011563Y006238D01*
X011543Y006225D01*
X011525Y006210D01*
X011510Y006192D01*
X011497Y006172D01*
X011488Y006150D01*
X011483Y006127D01*
X011481Y006104D01*
X011481Y006054D01*
X011483Y006031D01*
X011488Y006008D01*
X011497Y005986D01*
X011510Y005966D01*
X011525Y005948D01*
X011543Y005933D01*
X011563Y005920D01*
X011585Y005911D01*
X011608Y005906D01*
X011631Y005904D01*
X012681Y005904D01*
X012704Y005902D01*
X012727Y005897D01*
X012749Y005888D01*
X012769Y005875D01*
X012787Y005860D01*
X012802Y005842D01*
X012815Y005822D01*
X012824Y005800D01*
X012829Y005777D01*
X012831Y005754D01*
X012831Y005604D01*
X012829Y005581D01*
X012824Y005558D01*
X012815Y005536D01*
X012802Y005516D01*
X012787Y005498D01*
X012769Y005483D01*
X012749Y005470D01*
X012727Y005461D01*
X012704Y005456D01*
X012681Y005454D01*
X011031Y005454D01*
X010967Y005537D02*
X011061Y005630D01*
X011061Y005817D01*
X011178Y005771D02*
X011178Y005584D01*
X011225Y005537D01*
X011318Y005537D01*
X011365Y005584D01*
X011482Y005584D02*
X011528Y005537D01*
X011622Y005537D01*
X011669Y005584D01*
X011482Y005584D02*
X011482Y005771D01*
X011528Y005817D01*
X011622Y005817D01*
X011669Y005771D01*
X011365Y005771D02*
X011318Y005817D01*
X011225Y005817D01*
X011178Y005771D01*
X010874Y005817D02*
X010874Y005630D01*
X010967Y005537D01*
X011031Y005454D02*
X011008Y005452D01*
X010985Y005447D01*
X010963Y005438D01*
X010943Y005425D01*
X010925Y005410D01*
X010910Y005392D01*
X010897Y005372D01*
X010888Y005350D01*
X010883Y005327D01*
X010881Y005304D01*
X010881Y004337D01*
X011181Y004037D01*
X011182Y004037D02*
X011213Y004033D01*
X011243Y004025D01*
X011272Y004014D01*
X011300Y004000D01*
X011326Y003983D01*
X011351Y003963D01*
X011372Y003940D01*
X011391Y003915D01*
X011407Y003888D01*
X011420Y003860D01*
X011430Y003830D01*
X011436Y003800D01*
X011439Y003768D01*
X011438Y003737D01*
X011438Y001887D01*
X011436Y001864D01*
X011431Y001841D01*
X011422Y001819D01*
X011409Y001799D01*
X011394Y001781D01*
X011376Y001766D01*
X011356Y001753D01*
X011334Y001744D01*
X011311Y001739D01*
X011288Y001737D01*
X007588Y001737D01*
X007565Y001739D01*
X007542Y001744D01*
X007520Y001753D01*
X007500Y001766D01*
X007482Y001781D01*
X007467Y001799D01*
X007454Y001819D01*
X007445Y001841D01*
X007440Y001864D01*
X007438Y001887D01*
X010921Y006337D02*
X011014Y006337D01*
X011061Y006384D01*
X011061Y006477D01*
X010967Y006477D01*
X010874Y006384D02*
X010921Y006337D01*
X010874Y006384D02*
X010874Y006571D01*
X010921Y006617D01*
X011014Y006617D01*
X011061Y006571D01*
X011178Y006617D02*
X011365Y006337D01*
X011365Y006617D01*
X011178Y006617D02*
X011178Y006337D01*
D11*
X009581Y006031D02*
X009583Y006062D01*
X009589Y006093D01*
X009599Y006123D01*
X009612Y006151D01*
X009629Y006178D01*
X009649Y006202D01*
X009672Y006224D01*
X009697Y006242D01*
X009725Y006257D01*
X009754Y006269D01*
X009784Y006277D01*
X009815Y006281D01*
X009847Y006281D01*
X009878Y006277D01*
X009908Y006269D01*
X009937Y006257D01*
X009965Y006242D01*
X009990Y006224D01*
X010013Y006202D01*
X010033Y006178D01*
X010050Y006151D01*
X010063Y006123D01*
X010073Y006093D01*
X010079Y006062D01*
X010081Y006031D01*
X010079Y006000D01*
X010073Y005969D01*
X010063Y005939D01*
X010050Y005911D01*
X010033Y005884D01*
X010013Y005860D01*
X009990Y005838D01*
X009965Y005820D01*
X009937Y005805D01*
X009908Y005793D01*
X009878Y005785D01*
X009847Y005781D01*
X009815Y005781D01*
X009784Y005785D01*
X009754Y005793D01*
X009725Y005805D01*
X009697Y005820D01*
X009672Y005838D01*
X009649Y005860D01*
X009629Y005884D01*
X009612Y005911D01*
X009599Y005939D01*
X009589Y005969D01*
X009583Y006000D01*
X009581Y006031D01*
X009431Y005127D02*
X009433Y005167D01*
X009439Y005206D01*
X009449Y005245D01*
X009462Y005282D01*
X009480Y005318D01*
X009501Y005352D01*
X009525Y005384D01*
X009552Y005413D01*
X009582Y005440D01*
X009614Y005463D01*
X009649Y005483D01*
X009685Y005499D01*
X009723Y005512D01*
X009762Y005521D01*
X009801Y005526D01*
X009841Y005527D01*
X009881Y005524D01*
X009920Y005517D01*
X009958Y005506D01*
X009996Y005492D01*
X010031Y005473D01*
X010064Y005452D01*
X010096Y005427D01*
X010124Y005399D01*
X010150Y005369D01*
X010172Y005336D01*
X010191Y005301D01*
X010207Y005264D01*
X010219Y005226D01*
X010227Y005187D01*
X010231Y005147D01*
X010231Y005107D01*
X010227Y005067D01*
X010219Y005028D01*
X010207Y004990D01*
X010191Y004953D01*
X010172Y004918D01*
X010150Y004885D01*
X010124Y004855D01*
X010096Y004827D01*
X010064Y004802D01*
X010031Y004781D01*
X009996Y004762D01*
X009958Y004748D01*
X009920Y004737D01*
X009881Y004730D01*
X009841Y004727D01*
X009801Y004728D01*
X009762Y004733D01*
X009723Y004742D01*
X009685Y004755D01*
X009649Y004771D01*
X009614Y004791D01*
X009582Y004814D01*
X009552Y004841D01*
X009525Y004870D01*
X009501Y004902D01*
X009480Y004936D01*
X009462Y004972D01*
X009449Y005009D01*
X009439Y005048D01*
X009433Y005087D01*
X009431Y005127D01*
D12*
X009776Y004496D02*
X008987Y004496D01*
X008987Y004178D01*
X009776Y004178D01*
X009776Y004496D01*
X009887Y004496D02*
X009887Y004179D01*
X010676Y004179D01*
X010676Y004496D01*
X009887Y004496D01*
D13*
X011139Y003141D02*
X011139Y002544D01*
X007737Y002544D02*
X007737Y003141D01*
D14*
X007629Y003489D02*
X007631Y003469D01*
X007636Y003450D01*
X007645Y003432D01*
X007657Y003416D01*
X007672Y003403D01*
X007689Y003392D01*
X007707Y003385D01*
X007727Y003381D01*
X007747Y003381D01*
X007767Y003385D01*
X007785Y003392D01*
X007802Y003403D01*
X007817Y003416D01*
X007829Y003432D01*
X007838Y003450D01*
X007843Y003469D01*
X007845Y003489D01*
X007845Y003733D01*
X007843Y003753D01*
X007838Y003772D01*
X007829Y003790D01*
X007817Y003806D01*
X007802Y003819D01*
X007785Y003830D01*
X007767Y003837D01*
X007747Y003841D01*
X007727Y003841D01*
X007707Y003837D01*
X007689Y003830D01*
X007672Y003819D01*
X007657Y003806D01*
X007645Y003790D01*
X007636Y003772D01*
X007631Y003753D01*
X007629Y003733D01*
X007629Y003489D01*
X007629Y002237D02*
X007629Y001993D01*
X007631Y001973D01*
X007636Y001954D01*
X007645Y001936D01*
X007657Y001920D01*
X007672Y001907D01*
X007689Y001896D01*
X007707Y001889D01*
X007727Y001885D01*
X007747Y001885D01*
X007767Y001889D01*
X007785Y001896D01*
X007802Y001907D01*
X007817Y001920D01*
X007829Y001936D01*
X007838Y001954D01*
X007843Y001973D01*
X007845Y001993D01*
X007845Y002237D01*
X007843Y002257D01*
X007838Y002276D01*
X007829Y002294D01*
X007817Y002310D01*
X007802Y002323D01*
X007785Y002334D01*
X007767Y002341D01*
X007747Y002345D01*
X007727Y002345D01*
X007707Y002341D01*
X007689Y002334D01*
X007672Y002323D01*
X007657Y002310D01*
X007645Y002294D01*
X007636Y002276D01*
X007631Y002257D01*
X007629Y002237D01*
X011030Y002237D02*
X011030Y001993D01*
X011031Y001993D02*
X011033Y001973D01*
X011038Y001954D01*
X011047Y001936D01*
X011059Y001920D01*
X011074Y001907D01*
X011091Y001896D01*
X011109Y001889D01*
X011129Y001885D01*
X011149Y001885D01*
X011169Y001889D01*
X011187Y001896D01*
X011204Y001907D01*
X011219Y001920D01*
X011231Y001936D01*
X011240Y001954D01*
X011245Y001973D01*
X011247Y001993D01*
X011247Y002237D01*
X011245Y002257D01*
X011240Y002276D01*
X011231Y002294D01*
X011219Y002310D01*
X011204Y002323D01*
X011187Y002334D01*
X011169Y002341D01*
X011149Y002345D01*
X011129Y002345D01*
X011109Y002341D01*
X011091Y002334D01*
X011074Y002323D01*
X011059Y002310D01*
X011047Y002294D01*
X011038Y002276D01*
X011033Y002257D01*
X011031Y002237D01*
X011030Y003489D02*
X011030Y003733D01*
X011031Y003733D02*
X011033Y003753D01*
X011038Y003772D01*
X011047Y003790D01*
X011059Y003806D01*
X011074Y003819D01*
X011091Y003830D01*
X011109Y003837D01*
X011129Y003841D01*
X011149Y003841D01*
X011169Y003837D01*
X011187Y003830D01*
X011204Y003819D01*
X011219Y003806D01*
X011231Y003790D01*
X011240Y003772D01*
X011245Y003753D01*
X011247Y003733D01*
X011247Y003489D01*
X011245Y003469D01*
X011240Y003450D01*
X011231Y003432D01*
X011219Y003416D01*
X011204Y003403D01*
X011187Y003392D01*
X011169Y003385D01*
X011149Y003381D01*
X011129Y003381D01*
X011109Y003385D01*
X011091Y003392D01*
X011074Y003403D01*
X011059Y003416D01*
X011047Y003432D01*
X011038Y003450D01*
X011033Y003469D01*
X011031Y003489D01*
M02*
