G75*
G70*
%OFA0B0*%
%FSLAX24Y24*%
%IPPOS*%
%LPD*%
%AMOC8*
5,1,8,0,0,1.08239X$1,22.5*
%
%ADD10C,0.0060*%
%ADD11C,0.0050*%
%ADD12C,0.0000*%
%ADD13C,0.0004*%
%ADD14C,0.0020*%
%ADD15C,0.0040*%
D10*
X008163Y003177D02*
X008213Y003127D01*
X008363Y003127D01*
X008363Y003427D01*
X008213Y003427D01*
X008163Y003377D01*
X008163Y003327D01*
X008213Y003277D01*
X008363Y003277D01*
X008495Y003227D02*
X008495Y003177D01*
X008545Y003127D01*
X008645Y003127D01*
X008695Y003177D01*
X008645Y003277D02*
X008545Y003277D01*
X008495Y003227D01*
X008495Y003377D02*
X008545Y003427D01*
X008645Y003427D01*
X008695Y003377D01*
X008695Y003327D01*
X008645Y003277D01*
X008826Y003177D02*
X008826Y003427D01*
X009026Y003427D02*
X009026Y003177D01*
X008976Y003127D01*
X008876Y003127D01*
X008826Y003177D01*
X008811Y002887D02*
X008710Y002887D01*
X008660Y002837D01*
X008861Y002637D01*
X008811Y002587D01*
X008710Y002587D01*
X008660Y002637D01*
X008660Y002837D01*
X008529Y002837D02*
X008479Y002887D01*
X008379Y002887D01*
X008329Y002837D01*
X008329Y002637D01*
X008379Y002587D01*
X008479Y002587D01*
X008529Y002637D01*
X008479Y002737D02*
X008329Y002737D01*
X008479Y002737D02*
X008529Y002787D01*
X008529Y002837D01*
X008811Y002887D02*
X008861Y002837D01*
X008861Y002637D01*
X008959Y002437D02*
X008909Y002387D01*
X008909Y002337D01*
X008959Y002287D01*
X008909Y002237D01*
X008909Y002187D01*
X008959Y002137D01*
X009059Y002137D01*
X009109Y002187D01*
X009225Y002187D02*
X009225Y002137D01*
X009275Y002137D01*
X009275Y002187D01*
X009225Y002187D01*
X009406Y002137D02*
X009606Y002137D01*
X009506Y002137D02*
X009506Y002437D01*
X009606Y002337D01*
X009738Y002237D02*
X009838Y002137D01*
X009938Y002237D01*
X009938Y002437D01*
X009855Y002587D02*
X009655Y002787D01*
X009655Y002837D01*
X009705Y002887D01*
X009805Y002887D01*
X009855Y002837D01*
X009986Y002837D02*
X010187Y002637D01*
X010136Y002587D01*
X010036Y002587D01*
X009986Y002637D01*
X009986Y002837D01*
X010036Y002887D01*
X010136Y002887D01*
X010187Y002837D01*
X010187Y002637D01*
X010318Y002587D02*
X010518Y002587D01*
X010318Y002787D01*
X010318Y002837D01*
X010368Y002887D01*
X010468Y002887D01*
X010518Y002837D01*
X010684Y003127D02*
X010684Y003427D01*
X010534Y003427D01*
X010484Y003377D01*
X010484Y003277D01*
X010534Y003227D01*
X010684Y003227D01*
X010352Y003177D02*
X010302Y003127D01*
X010202Y003127D01*
X010152Y003177D01*
X010152Y003227D01*
X010202Y003277D01*
X010302Y003277D01*
X010352Y003327D01*
X010352Y003377D01*
X010302Y003427D01*
X010202Y003427D01*
X010152Y003377D01*
X010021Y003427D02*
X010021Y003127D01*
X010021Y003227D02*
X009871Y003227D01*
X009821Y003277D01*
X009821Y003377D01*
X009871Y003427D01*
X010021Y003427D01*
X009689Y003377D02*
X009639Y003427D01*
X009539Y003427D01*
X009489Y003377D01*
X009489Y003327D01*
X009689Y003127D01*
X009489Y003127D01*
X009473Y002887D02*
X009373Y002887D01*
X009323Y002837D01*
X009323Y002787D01*
X009373Y002737D01*
X009323Y002687D01*
X009323Y002637D01*
X009373Y002587D01*
X009473Y002587D01*
X009524Y002637D01*
X009655Y002587D02*
X009855Y002587D01*
X009738Y002437D02*
X009738Y002237D01*
X009423Y002737D02*
X009373Y002737D01*
X009473Y002887D02*
X009524Y002837D01*
X009192Y002587D02*
X008992Y002887D01*
X008959Y002437D02*
X009059Y002437D01*
X009109Y002387D01*
X009009Y002287D02*
X008959Y002287D01*
X008163Y003177D02*
X008163Y003227D01*
X008213Y003277D01*
D11*
X007438Y003737D02*
X007438Y001887D01*
X007440Y001864D01*
X007445Y001841D01*
X007454Y001819D01*
X007467Y001799D01*
X007482Y001781D01*
X007500Y001766D01*
X007520Y001753D01*
X007542Y001744D01*
X007565Y001739D01*
X007588Y001737D01*
X011288Y001737D01*
X011311Y001739D01*
X011334Y001744D01*
X011356Y001753D01*
X011376Y001766D01*
X011394Y001781D01*
X011409Y001799D01*
X011422Y001819D01*
X011431Y001841D01*
X011436Y001864D01*
X011438Y001887D01*
X011438Y003737D01*
X011439Y003768D01*
X011436Y003800D01*
X011430Y003830D01*
X011420Y003860D01*
X011407Y003888D01*
X011391Y003915D01*
X011372Y003940D01*
X011351Y003963D01*
X011326Y003983D01*
X011300Y004000D01*
X011272Y004014D01*
X011243Y004025D01*
X011213Y004033D01*
X011182Y004037D01*
X011181Y004037D02*
X010881Y004337D01*
X010881Y005304D01*
X010883Y005327D01*
X010888Y005350D01*
X010897Y005372D01*
X010910Y005392D01*
X010925Y005410D01*
X010943Y005425D01*
X010963Y005438D01*
X010985Y005447D01*
X011008Y005452D01*
X011031Y005454D01*
X012681Y005454D01*
X012704Y005456D01*
X012727Y005461D01*
X012749Y005470D01*
X012769Y005483D01*
X012787Y005498D01*
X012802Y005516D01*
X012815Y005536D01*
X012824Y005558D01*
X012829Y005581D01*
X012831Y005604D01*
X012831Y005754D01*
X012829Y005777D01*
X012824Y005800D01*
X012815Y005822D01*
X012802Y005842D01*
X012787Y005860D01*
X012769Y005875D01*
X012749Y005888D01*
X012727Y005897D01*
X012704Y005902D01*
X012681Y005904D01*
X011631Y005904D01*
X011671Y005817D02*
X011671Y005630D01*
X011577Y005537D01*
X011484Y005630D01*
X011484Y005817D01*
X011367Y005771D02*
X011367Y005584D01*
X011320Y005537D01*
X011227Y005537D01*
X011180Y005584D01*
X011063Y005584D02*
X011016Y005537D01*
X010923Y005537D01*
X010876Y005584D01*
X011063Y005584D02*
X011063Y005771D01*
X011016Y005817D01*
X010923Y005817D01*
X010876Y005771D01*
X011180Y005771D02*
X011227Y005817D01*
X011320Y005817D01*
X011367Y005771D01*
X011481Y006054D02*
X011481Y006104D01*
X011483Y006127D01*
X011488Y006150D01*
X011497Y006172D01*
X011510Y006192D01*
X011525Y006210D01*
X011543Y006225D01*
X011563Y006238D01*
X011585Y006247D01*
X011608Y006252D01*
X011631Y006254D01*
X012681Y006254D01*
X012704Y006256D01*
X012727Y006261D01*
X012749Y006270D01*
X012769Y006283D01*
X012787Y006298D01*
X012802Y006316D01*
X012815Y006336D01*
X012824Y006358D01*
X012829Y006381D01*
X012831Y006404D01*
X012831Y006554D01*
X012829Y006577D01*
X012824Y006600D01*
X012815Y006622D01*
X012802Y006642D01*
X012787Y006660D01*
X012769Y006675D01*
X012749Y006688D01*
X012727Y006697D01*
X012704Y006702D01*
X012681Y006704D01*
X008931Y006704D01*
X008908Y006702D01*
X008885Y006697D01*
X008863Y006688D01*
X008843Y006675D01*
X008825Y006660D01*
X008810Y006642D01*
X008797Y006622D01*
X008788Y006600D01*
X008783Y006577D01*
X008781Y006554D01*
X008781Y004337D01*
X008481Y004037D01*
X007738Y004037D01*
X007704Y004035D01*
X007671Y004029D01*
X007639Y004020D01*
X007608Y004007D01*
X007578Y003991D01*
X007551Y003972D01*
X007526Y003949D01*
X007503Y003924D01*
X007484Y003897D01*
X007468Y003867D01*
X007455Y003836D01*
X007446Y003804D01*
X007440Y003771D01*
X007438Y003737D01*
X008538Y003795D02*
X008543Y003867D01*
X008585Y003917D01*
X008608Y003932D01*
X008670Y003932D01*
X008723Y003897D01*
X008745Y003852D01*
X008745Y003792D01*
X008725Y003755D01*
X008703Y003727D01*
X008670Y003712D01*
X008635Y003705D02*
X008570Y003732D01*
X008538Y003795D01*
X010923Y006337D02*
X010876Y006384D01*
X010876Y006571D01*
X010923Y006617D01*
X011063Y006617D01*
X011063Y006337D01*
X010923Y006337D01*
X011180Y006337D02*
X011180Y006617D01*
X011367Y006617D02*
X011180Y006337D01*
X011367Y006337D02*
X011367Y006617D01*
X011484Y006571D02*
X011530Y006617D01*
X011624Y006617D01*
X011671Y006571D01*
X011671Y006384D01*
X011624Y006337D01*
X011530Y006337D01*
X011484Y006384D01*
X011484Y006477D01*
X011577Y006477D01*
X011481Y006054D02*
X011483Y006031D01*
X011488Y006008D01*
X011497Y005986D01*
X011510Y005966D01*
X011525Y005948D01*
X011543Y005933D01*
X011563Y005920D01*
X011585Y005911D01*
X011608Y005906D01*
X011631Y005904D01*
D12*
X009581Y006031D02*
X009583Y006062D01*
X009589Y006093D01*
X009599Y006123D01*
X009612Y006151D01*
X009629Y006178D01*
X009649Y006202D01*
X009672Y006224D01*
X009697Y006242D01*
X009725Y006257D01*
X009754Y006269D01*
X009784Y006277D01*
X009815Y006281D01*
X009847Y006281D01*
X009878Y006277D01*
X009908Y006269D01*
X009937Y006257D01*
X009965Y006242D01*
X009990Y006224D01*
X010013Y006202D01*
X010033Y006178D01*
X010050Y006151D01*
X010063Y006123D01*
X010073Y006093D01*
X010079Y006062D01*
X010081Y006031D01*
X010079Y006000D01*
X010073Y005969D01*
X010063Y005939D01*
X010050Y005911D01*
X010033Y005884D01*
X010013Y005860D01*
X009990Y005838D01*
X009965Y005820D01*
X009937Y005805D01*
X009908Y005793D01*
X009878Y005785D01*
X009847Y005781D01*
X009815Y005781D01*
X009784Y005785D01*
X009754Y005793D01*
X009725Y005805D01*
X009697Y005820D01*
X009672Y005838D01*
X009649Y005860D01*
X009629Y005884D01*
X009612Y005911D01*
X009599Y005939D01*
X009589Y005969D01*
X009583Y006000D01*
X009581Y006031D01*
X009431Y005127D02*
X009433Y005167D01*
X009439Y005206D01*
X009449Y005245D01*
X009462Y005282D01*
X009480Y005318D01*
X009501Y005352D01*
X009525Y005384D01*
X009552Y005413D01*
X009582Y005440D01*
X009614Y005463D01*
X009649Y005483D01*
X009685Y005499D01*
X009723Y005512D01*
X009762Y005521D01*
X009801Y005526D01*
X009841Y005527D01*
X009881Y005524D01*
X009920Y005517D01*
X009958Y005506D01*
X009996Y005492D01*
X010031Y005473D01*
X010064Y005452D01*
X010096Y005427D01*
X010124Y005399D01*
X010150Y005369D01*
X010172Y005336D01*
X010191Y005301D01*
X010207Y005264D01*
X010219Y005226D01*
X010227Y005187D01*
X010231Y005147D01*
X010231Y005107D01*
X010227Y005067D01*
X010219Y005028D01*
X010207Y004990D01*
X010191Y004953D01*
X010172Y004918D01*
X010150Y004885D01*
X010124Y004855D01*
X010096Y004827D01*
X010064Y004802D01*
X010031Y004781D01*
X009996Y004762D01*
X009958Y004748D01*
X009920Y004737D01*
X009881Y004730D01*
X009841Y004727D01*
X009801Y004728D01*
X009762Y004733D01*
X009723Y004742D01*
X009685Y004755D01*
X009649Y004771D01*
X009614Y004791D01*
X009582Y004814D01*
X009552Y004841D01*
X009525Y004870D01*
X009501Y004902D01*
X009480Y004936D01*
X009462Y004972D01*
X009449Y005009D01*
X009439Y005048D01*
X009433Y005087D01*
X009431Y005127D01*
D13*
X011030Y003733D02*
X011030Y003489D01*
X011031Y003489D02*
X011033Y003469D01*
X011038Y003450D01*
X011047Y003432D01*
X011059Y003416D01*
X011074Y003403D01*
X011091Y003392D01*
X011109Y003385D01*
X011129Y003381D01*
X011149Y003381D01*
X011169Y003385D01*
X011187Y003392D01*
X011204Y003403D01*
X011219Y003416D01*
X011231Y003432D01*
X011240Y003450D01*
X011245Y003469D01*
X011247Y003489D01*
X011247Y003733D01*
X011245Y003753D01*
X011240Y003772D01*
X011231Y003790D01*
X011219Y003806D01*
X011204Y003819D01*
X011187Y003830D01*
X011169Y003837D01*
X011149Y003841D01*
X011129Y003841D01*
X011109Y003837D01*
X011091Y003830D01*
X011074Y003819D01*
X011059Y003806D01*
X011047Y003790D01*
X011038Y003772D01*
X011033Y003753D01*
X011031Y003733D01*
X011030Y002237D02*
X011030Y001993D01*
X011031Y001993D02*
X011033Y001973D01*
X011038Y001954D01*
X011047Y001936D01*
X011059Y001920D01*
X011074Y001907D01*
X011091Y001896D01*
X011109Y001889D01*
X011129Y001885D01*
X011149Y001885D01*
X011169Y001889D01*
X011187Y001896D01*
X011204Y001907D01*
X011219Y001920D01*
X011231Y001936D01*
X011240Y001954D01*
X011245Y001973D01*
X011247Y001993D01*
X011247Y002237D01*
X011245Y002257D01*
X011240Y002276D01*
X011231Y002294D01*
X011219Y002310D01*
X011204Y002323D01*
X011187Y002334D01*
X011169Y002341D01*
X011149Y002345D01*
X011129Y002345D01*
X011109Y002341D01*
X011091Y002334D01*
X011074Y002323D01*
X011059Y002310D01*
X011047Y002294D01*
X011038Y002276D01*
X011033Y002257D01*
X011031Y002237D01*
X007845Y002237D02*
X007845Y001993D01*
X007843Y001973D01*
X007838Y001954D01*
X007829Y001936D01*
X007817Y001920D01*
X007802Y001907D01*
X007785Y001896D01*
X007767Y001889D01*
X007747Y001885D01*
X007727Y001885D01*
X007707Y001889D01*
X007689Y001896D01*
X007672Y001907D01*
X007657Y001920D01*
X007645Y001936D01*
X007636Y001954D01*
X007631Y001973D01*
X007629Y001993D01*
X007629Y002237D01*
X007631Y002257D01*
X007636Y002276D01*
X007645Y002294D01*
X007657Y002310D01*
X007672Y002323D01*
X007689Y002334D01*
X007707Y002341D01*
X007727Y002345D01*
X007747Y002345D01*
X007767Y002341D01*
X007785Y002334D01*
X007802Y002323D01*
X007817Y002310D01*
X007829Y002294D01*
X007838Y002276D01*
X007843Y002257D01*
X007845Y002237D01*
X007845Y003489D02*
X007845Y003733D01*
X007843Y003753D01*
X007838Y003772D01*
X007829Y003790D01*
X007817Y003806D01*
X007802Y003819D01*
X007785Y003830D01*
X007767Y003837D01*
X007747Y003841D01*
X007727Y003841D01*
X007707Y003837D01*
X007689Y003830D01*
X007672Y003819D01*
X007657Y003806D01*
X007645Y003790D01*
X007636Y003772D01*
X007631Y003753D01*
X007629Y003733D01*
X007629Y003489D01*
X007631Y003469D01*
X007636Y003450D01*
X007645Y003432D01*
X007657Y003416D01*
X007672Y003403D01*
X007689Y003392D01*
X007707Y003385D01*
X007727Y003381D01*
X007747Y003381D01*
X007767Y003385D01*
X007785Y003392D01*
X007802Y003403D01*
X007817Y003416D01*
X007829Y003432D01*
X007838Y003450D01*
X007843Y003469D01*
X007845Y003489D01*
D14*
X008088Y003695D02*
X008133Y003695D01*
X008133Y003867D01*
X008140Y003885D01*
X008150Y003900D01*
X008165Y003905D01*
X008175Y003910D01*
X008215Y003910D01*
X008233Y003895D01*
X008243Y003880D01*
X008245Y003875D01*
X008245Y003695D01*
X008290Y003695D01*
X008290Y003875D01*
X008303Y003892D01*
X008315Y003902D01*
X008335Y003912D01*
X008365Y003912D01*
X008383Y003905D01*
X008393Y003895D01*
X008400Y003882D01*
X008408Y003867D01*
X008408Y003692D01*
X008450Y003692D01*
X008450Y003865D01*
X008440Y003900D01*
X008425Y003925D01*
X008403Y003942D01*
X008370Y003955D01*
X008330Y003955D01*
X008310Y003947D01*
X008285Y003932D01*
X008275Y003922D01*
X008265Y003922D01*
X008253Y003930D01*
X008238Y003942D01*
X008220Y003952D01*
X008208Y003955D01*
X008173Y003955D01*
X008155Y003950D01*
X008135Y003940D01*
X008118Y003925D01*
X008105Y003910D01*
X008095Y003887D01*
X008090Y003872D01*
X008088Y003850D01*
X008088Y003695D01*
X008520Y003767D02*
X008515Y003792D01*
X008515Y003850D01*
X008523Y003877D01*
X008533Y003897D01*
X008570Y003935D01*
X008598Y003950D01*
X008625Y003955D01*
X008668Y003955D01*
X008695Y003945D01*
X008723Y003927D01*
X008745Y003905D01*
X008760Y003882D01*
X008770Y003845D01*
X008770Y003797D01*
X008765Y003780D01*
X008758Y003760D01*
X008748Y003742D01*
X008730Y003725D01*
X008710Y003707D01*
X008690Y003697D01*
X008665Y003690D01*
X008655Y003690D01*
X008653Y003690D02*
X008620Y003690D01*
X008598Y003695D01*
X008573Y003705D01*
X008550Y003725D01*
X008533Y003750D01*
X008520Y003767D01*
X008565Y003785D02*
X008563Y003795D01*
X008563Y003847D01*
X008570Y003867D01*
X008583Y003887D01*
X008598Y003902D01*
X008613Y003910D01*
X008620Y003912D01*
X008660Y003912D01*
X008678Y003907D01*
X008698Y003895D01*
X008708Y003882D01*
X008720Y003862D01*
X008725Y003847D01*
X008725Y003797D01*
X008715Y003775D01*
X008703Y003755D01*
X008685Y003740D01*
X008668Y003730D01*
X008628Y003730D01*
X008635Y003727D02*
X008615Y003732D01*
X008595Y003742D01*
X008583Y003755D01*
X008570Y003772D01*
X008565Y003785D01*
X008823Y003735D02*
X008873Y003735D01*
X008890Y003740D01*
X008913Y003750D01*
X008930Y003767D01*
X008943Y003785D01*
X008948Y003797D01*
X008950Y003802D01*
X008950Y003842D01*
X008940Y003857D01*
X008928Y003880D01*
X008905Y003895D01*
X008890Y003902D01*
X008865Y003907D01*
X008823Y003907D01*
X008823Y003950D01*
X008873Y003950D01*
X008895Y003947D01*
X008918Y003940D01*
X008943Y003925D01*
X008960Y003907D01*
X008973Y003892D01*
X008983Y003872D01*
X008990Y003852D01*
X008995Y003835D01*
X008995Y003805D01*
X008990Y003780D01*
X008978Y003755D01*
X008965Y003740D01*
X008950Y003725D01*
X008930Y003710D01*
X008913Y003702D01*
X008893Y003697D01*
X008865Y003692D01*
X008823Y003692D01*
X008823Y003735D01*
X008838Y003720D02*
X008893Y003725D01*
X008930Y003745D01*
X008960Y003787D01*
X008963Y003852D01*
X008938Y003887D01*
X008893Y003920D01*
X008838Y003922D01*
X008838Y003937D01*
X008893Y003935D01*
X008940Y003907D01*
X008978Y003857D01*
X008978Y003790D01*
X008950Y003742D01*
X008900Y003710D01*
X008833Y003705D01*
X008865Y003692D02*
X008868Y003692D01*
X009073Y003707D02*
X009073Y003725D01*
X009078Y003735D01*
X009090Y003747D01*
X009113Y003747D01*
X009123Y003740D01*
X009130Y003730D01*
X009130Y003710D01*
X009128Y003702D01*
X009118Y003692D01*
X009108Y003690D01*
X009090Y003707D01*
X009088Y003725D01*
X009100Y003735D01*
X009113Y003725D01*
X009110Y003710D01*
X009103Y003717D01*
X009103Y003690D02*
X009093Y003690D01*
X009085Y003692D01*
X009075Y003700D01*
X009073Y003707D01*
X009218Y003695D02*
X009218Y003835D01*
X009223Y003860D01*
X009230Y003880D01*
X009245Y003907D01*
X009265Y003927D01*
X009295Y003945D01*
X009315Y003952D01*
X009330Y003955D01*
X009370Y003955D01*
X009395Y003947D01*
X009418Y003937D01*
X009440Y003917D01*
X009458Y003895D01*
X009468Y003872D01*
X009475Y003847D01*
X009475Y003797D01*
X009463Y003760D01*
X009443Y003730D01*
X009425Y003712D01*
X009403Y003702D01*
X009373Y003690D01*
X009330Y003690D01*
X009283Y003705D01*
X009278Y003707D01*
X009270Y003707D01*
X009260Y003695D01*
X009253Y003695D01*
X009248Y003695D02*
X009218Y003695D01*
X009230Y003702D02*
X009235Y003840D01*
X009258Y003900D01*
X009288Y003922D01*
X009333Y003937D01*
X009378Y003937D01*
X009418Y003920D01*
X009453Y003872D01*
X009460Y003840D01*
X009458Y003787D01*
X009418Y003725D01*
X009370Y003702D01*
X009328Y003707D01*
X009285Y003725D01*
X009265Y003717D01*
X009250Y003707D01*
X009250Y003717D01*
X009280Y003735D01*
X009245Y003725D01*
X009255Y003747D01*
X009245Y003747D01*
X009253Y003847D01*
X009280Y003905D01*
X009338Y003925D01*
X009395Y003917D01*
X009435Y003880D01*
X009445Y003805D01*
X009430Y003762D01*
X009400Y003727D01*
X009328Y003712D01*
X009323Y003727D02*
X009303Y003735D01*
X009285Y003747D01*
X009283Y003750D01*
X009275Y003742D01*
X009268Y003747D02*
X009265Y003750D01*
X009263Y003755D01*
X009265Y003850D01*
X009270Y003862D01*
X009280Y003882D01*
X009298Y003900D01*
X009318Y003910D01*
X009325Y003912D01*
X009368Y003912D01*
X009390Y003905D01*
X009408Y003892D01*
X009420Y003875D01*
X009430Y003857D01*
X009430Y003787D01*
X009420Y003772D01*
X009403Y003747D01*
X009383Y003732D01*
X009365Y003727D01*
X009323Y003727D01*
X009533Y003737D02*
X009533Y003780D01*
X009540Y003800D01*
X009558Y003815D01*
X009665Y003862D01*
X009675Y003872D01*
X009678Y003877D01*
X009678Y003895D01*
X009673Y003905D01*
X009670Y003907D01*
X009663Y003910D01*
X009545Y003910D01*
X009545Y003950D01*
X009658Y003950D01*
X009680Y003945D01*
X009695Y003937D01*
X009710Y003922D01*
X009720Y003907D01*
X009723Y003890D01*
X009723Y003875D01*
X009715Y003857D01*
X009703Y003840D01*
X009665Y003815D01*
X009588Y003782D01*
X009578Y003770D01*
X009573Y003757D01*
X009583Y003745D01*
X009595Y003735D01*
X009723Y003735D01*
X009723Y003695D01*
X009608Y003695D01*
X009568Y003702D01*
X009548Y003715D01*
X009533Y003737D01*
X009548Y003740D02*
X009555Y003790D01*
X009578Y003812D01*
X009683Y003857D01*
X009695Y003877D01*
X009685Y003907D01*
X009670Y003922D01*
X009560Y003925D01*
X009558Y003935D01*
X009670Y003932D01*
X009700Y003917D01*
X009705Y003870D01*
X009680Y003840D01*
X009575Y003792D01*
X009565Y003762D01*
X009560Y003742D01*
X009585Y003725D01*
X009595Y003720D02*
X009710Y003720D01*
X009715Y003717D01*
X009688Y003715D01*
X009713Y003707D02*
X009585Y003710D01*
X009595Y003720D01*
X009578Y003710D02*
X009548Y003740D01*
X009720Y003697D02*
X009723Y003695D01*
X009800Y003740D02*
X009818Y003720D01*
X009835Y003707D01*
X009855Y003697D01*
X009878Y003690D01*
X009928Y003690D01*
X009948Y003695D01*
X009973Y003705D01*
X009993Y003720D01*
X010010Y003740D01*
X010028Y003770D01*
X010035Y003795D01*
X010038Y003820D01*
X010033Y003850D01*
X010025Y003877D01*
X010000Y003915D01*
X009975Y003935D01*
X009948Y003950D01*
X009930Y003955D01*
X009883Y003955D01*
X009855Y003947D01*
X009833Y003935D01*
X009815Y003920D01*
X009798Y003900D01*
X009783Y003877D01*
X009953Y003782D01*
X009950Y003782D02*
X009970Y003812D01*
X009855Y003880D01*
X009858Y003892D01*
X009865Y003905D01*
X009878Y003912D01*
X009930Y003912D01*
X009953Y003900D01*
X009973Y003880D01*
X009980Y003867D01*
X009988Y003857D01*
X009990Y003827D01*
X009990Y003805D01*
X009980Y003780D01*
X009968Y003755D01*
X009948Y003742D01*
X009933Y003735D01*
X009925Y003730D01*
X009885Y003730D01*
X009870Y003737D01*
X009853Y003750D01*
X009838Y003765D01*
X009828Y003782D01*
X009820Y003812D01*
X009775Y003805D01*
X009785Y003772D01*
X009800Y003740D01*
X009818Y003740D02*
X009793Y003797D01*
X009810Y003795D02*
X009825Y003752D01*
X009873Y003722D01*
X009888Y003715D01*
X009930Y003715D01*
X009978Y003740D01*
X010005Y003802D01*
X010000Y003862D01*
X009980Y003897D01*
X009938Y003922D01*
X009885Y003925D01*
X009858Y003912D01*
X009845Y003895D01*
X009840Y003877D01*
X009953Y003812D01*
X009950Y003797D01*
X009803Y003882D01*
X009838Y003922D01*
X009825Y003882D01*
X009838Y003905D02*
X009878Y003942D01*
X009895Y003942D01*
X009933Y003942D02*
X009995Y003905D01*
X010013Y003862D01*
X010020Y003795D01*
X009990Y003732D01*
X009930Y003702D01*
X009875Y003702D01*
X009818Y003740D01*
X009845Y003927D02*
X009933Y003940D01*
X010085Y003952D02*
X010165Y003952D01*
X010163Y003960D01*
X010163Y004020D01*
X010210Y004020D01*
X010210Y003772D01*
X010198Y003737D01*
X010183Y003715D01*
X010160Y003702D01*
X010138Y003697D01*
X010118Y003692D01*
X010100Y003705D01*
X010138Y003712D01*
X010170Y003722D01*
X010185Y003750D01*
X010198Y003780D01*
X010198Y004005D01*
X010178Y004007D01*
X010180Y003777D01*
X010158Y003732D01*
X010098Y003715D01*
X010088Y003732D02*
X010123Y003732D01*
X010138Y003740D01*
X010148Y003747D01*
X010155Y003755D01*
X010163Y003770D01*
X010163Y003907D01*
X010155Y003910D01*
X010085Y003910D01*
X010085Y003952D01*
X010098Y003937D02*
X010168Y003937D01*
X010170Y003922D02*
X010098Y003920D01*
X010098Y003937D01*
X010088Y003732D02*
X010088Y003692D01*
X010113Y003692D01*
X010285Y003695D02*
X010330Y003695D01*
X010330Y003697D02*
X010330Y004067D01*
X010285Y004067D01*
X010285Y003695D01*
X010298Y003705D02*
X010298Y004055D01*
X010318Y004055D01*
X010315Y003705D01*
X010413Y003695D02*
X010413Y003950D01*
X010458Y003950D01*
X010458Y003695D01*
X010413Y003695D01*
X010425Y003707D02*
X010430Y003937D01*
X010445Y003937D02*
X010440Y003707D01*
X010425Y003707D01*
X010533Y003682D02*
X010533Y003840D01*
X010538Y003860D01*
X010545Y003882D01*
X010560Y003905D01*
X010580Y003927D01*
X010600Y003940D01*
X010628Y003952D01*
X010643Y003955D01*
X010685Y003955D01*
X010718Y003945D01*
X010740Y003932D01*
X010758Y003915D01*
X010773Y003895D01*
X010783Y003877D01*
X010790Y003845D01*
X010790Y003800D01*
X010785Y003780D01*
X010775Y003755D01*
X010760Y003732D01*
X010738Y003710D01*
X010688Y003690D01*
X010645Y003690D01*
X010598Y003705D01*
X010580Y003710D01*
X010580Y003665D01*
X010595Y003647D01*
X010615Y003630D01*
X010635Y003620D01*
X010655Y003615D01*
X010685Y003615D01*
X010735Y003627D01*
X010745Y003587D01*
X010683Y003570D01*
X010653Y003570D01*
X010618Y003575D01*
X010595Y003587D01*
X010570Y003605D01*
X010550Y003630D01*
X010540Y003655D01*
X010533Y003682D01*
X010550Y003670D02*
X010550Y003850D01*
X010568Y003852D01*
X010565Y003657D01*
X010613Y003607D01*
X010670Y003600D01*
X010725Y003612D01*
X010738Y003602D02*
X010670Y003585D01*
X010610Y003592D01*
X010568Y003632D01*
X010550Y003670D01*
X010580Y003720D02*
X010660Y003697D01*
X010728Y003717D01*
X010760Y003762D01*
X010773Y003795D01*
X010770Y003870D01*
X010728Y003920D01*
X010675Y003940D01*
X010630Y003935D01*
X010588Y003915D01*
X010553Y003860D01*
X010568Y003860D02*
X010593Y003907D01*
X010633Y003920D01*
X010685Y003925D01*
X010720Y003910D01*
X010750Y003875D01*
X010758Y003807D01*
X010743Y003755D01*
X010703Y003720D01*
X010645Y003712D01*
X010580Y003742D01*
X010580Y003720D01*
X010603Y003745D02*
X010635Y003732D01*
X010643Y003730D01*
X010685Y003730D01*
X010708Y003740D01*
X010725Y003760D01*
X010743Y003792D01*
X010745Y003857D01*
X010743Y003855D02*
X010735Y003870D01*
X010723Y003885D01*
X010710Y003897D01*
X010693Y003910D01*
X010675Y003912D01*
X010638Y003912D01*
X010618Y003902D01*
X010598Y003887D01*
X010585Y003867D01*
X010580Y003852D01*
X010580Y003760D01*
X010575Y003762D02*
X010603Y003745D01*
X010445Y003997D02*
X010435Y003997D01*
X010425Y004027D01*
X010435Y004037D01*
X010445Y004030D01*
X010443Y004012D01*
X010455Y004007D02*
X010445Y003997D01*
X010435Y004000D02*
X010428Y003997D01*
X010418Y004002D01*
X010413Y004010D01*
X010408Y004020D01*
X010408Y004027D01*
X010410Y004037D01*
X010420Y004047D01*
X010428Y004052D01*
X010443Y004052D01*
X010453Y004045D01*
X010460Y004032D01*
X010460Y004017D01*
X010455Y004007D01*
D15*
X008430Y003865D02*
X008428Y003715D01*
X008430Y003865D02*
X008395Y003920D01*
X008358Y003935D01*
X008305Y003920D01*
X008273Y003895D01*
X008268Y003707D01*
X008108Y003715D02*
X008110Y003870D01*
X008138Y003915D01*
X008188Y003930D01*
X008225Y003927D01*
X008258Y003900D01*
M02*
